# xmcd
#
# Track frame offsets:
#	150
#	17148
#	43965
#	70233
#	120433
#	146213
#	168130
#
# Disc length: 2943 seconds
#
# Revision: 0
# Processed by: cddbd v1.4PL0 Copyright (c) Steve Scherf et al.
# Submitted via: EasyCDDAExtractor 4.5.2.1
#
DISCID=5f0b7d07
DTITLE=Blue By Nature - Live At The Lake
DYEAR=1997
DGENRE=Blues
TTITLE0="A" Jam
TTITLE1=My Misfortune
TTITLE2=I'll Get Along Alright
TTITLE3=Been So Long
TTITLE4=Fun And Games
TTITLE5=Another Day, Another Mile
TTITLE6=I Had It All Wrong
EXTD=
EXTT0=
EXTT1=
EXTT2=
EXTT3=
EXTT4=
EXTT5=
EXTT6=
PLAYORDER=
